<svg xmlns="http://www.w3.org/2000/svg" viewBox="0 0 256 256">
<g transform="scale(2.60 2.60)">
	<path d="M 45 0 C 20.147 0 0 20.147 0 45 c 0 24.853 20.147 45 45 45 s 45 -20.147 45 -45 C 90 20.147 69.853 0 45 0 z M 32.024 55.032 h -7.211 c -0.435 0 -0.759 -0.195 -0.943 -0.492 c -0.19 -0.308 -0.2 -0.708 0 -1.106 l 7.662 -13.521 c 0.008 -0.015 0.008 -0.025 0 -0.041 l -4.876 -8.44 c -0.203 -0.401 -0.232 -0.798 -0.042 -1.106 c 0.184 -0.298 0.549 -0.451 0.983 -0.451 v 0 h 7.212 c 1.106 0 1.648 0.713 2.008 1.352 c 0 0 4.928 8.598 4.957 8.645 c -0.292 0.514 -7.785 13.767 -7.785 13.767 C 33.622 54.305 33.102 55.032 32.024 55.032 z M 66.122 21.574 l -15.966 28.23 c -0.01 0.014 -0.01 0.033 0 0.047 l 10.166 18.574 c 0.202 0.4 0.207 0.807 0.015 1.115 C 60.154 69.836 59.814 70 59.38 70 h -7.203 c -1.105 0 -1.657 -0.734 -2.015 -1.374 c 0 0 -10.22 -18.749 -10.246 -18.798 c 0.512 -0.904 16.047 -28.454 16.047 -28.454 c 0.387 -0.695 0.854 -1.374 1.931 -1.374 l 0 0 h -0.001 v 0 h 7.285 c 0.435 0 0.775 0.164 0.959 0.461 C 66.327 20.769 66.322 21.175 66.122 21.574 z" />
</g>
</svg>
